<?xml version="1.0" encoding="UTF-8" standalone="no"?>
<svg
   xmlns:dc="http://purl.org/dc/elements/1.1/"
   xmlns:cc="http://creativecommons.org/ns#"
   xmlns:rdf="http://www.w3.org/1999/02/22-rdf-syntax-ns#"
   xmlns:svg="http://www.w3.org/2000/svg"
   xmlns="http://www.w3.org/2000/svg"
   xmlns:xlink="http://www.w3.org/1999/xlink"
   xmlns:sodipodi="http://sodipodi.sourceforge.net/DTD/sodipodi-0.dtd"
   xmlns:inkscape="http://www.inkscape.org/namespaces/inkscape"
   sodipodi:docname="logo.svg"
   inkscape:version="1.0 (4035a4fb49, 2020-05-01)"
   id="svg8"
   version="1.1"
   viewBox="0 0 210 297"
   height="297mm"
   width="210mm">
  <defs
     id="defs2">
    <linearGradient
       id="linearGradient897"
       inkscape:collect="always">
      <stop
         id="stop893"
         offset="0"
         style="stop-color:#ff6600;stop-opacity:1;" />
      <stop
         id="stop895"
         offset="1"
         style="stop-color:#ffe680;stop-opacity:1" />
    </linearGradient>
    <linearGradient
       id="linearGradient873"
       inkscape:collect="always">
      <stop
         id="stop869"
         offset="0"
         style="stop-color:#241c1c;stop-opacity:1" />
      <stop
         id="stop871"
         offset="1"
         style="stop-color:#916f6f;stop-opacity:1" />
    </linearGradient>
    <linearGradient
       gradientTransform="translate(5.479025,4.6772167)"
       gradientUnits="userSpaceOnUse"
       y2="170.91887"
       x2="67.351921"
       y1="88.332581"
       x1="43.030396"
       id="linearGradient875"
       xlink:href="#linearGradient873"
       inkscape:collect="always" />
    <linearGradient
       y2="170.91887"
       x2="67.351921"
       y1="88.332581"
       x1="43.030396"
       gradientTransform="matrix(-1,0,0,1,190.23115,4.6772167)"
       gradientUnits="userSpaceOnUse"
       id="linearGradient879"
       xlink:href="#linearGradient873"
       inkscape:collect="always" />
    <linearGradient
       y2="154.34814"
       x2="97.820648"
       y1="90.871643"
       x1="97.820641"
       gradientTransform="scale(3.7795276)"
       gradientUnits="userSpaceOnUse"
       id="linearGradient917"
       xlink:href="#linearGradient897"
       inkscape:collect="always" />
  </defs>
  <sodipodi:namedview
     inkscape:window-maximized="1"
     inkscape:window-y="-8"
     inkscape:window-x="1272"
     inkscape:window-height="1137"
     inkscape:window-width="1920"
     inkscape:snap-global="false"
     showgrid="false"
     inkscape:document-rotation="0"
     inkscape:current-layer="layer1"
     inkscape:document-units="mm"
     inkscape:cy="507.21025"
     inkscape:cx="390.94661"
     inkscape:zoom="1.979899"
     inkscape:pageshadow="2"
     inkscape:pageopacity="0.0"
     borderopacity="1.0"
     bordercolor="#666666"
     pagecolor="#ffffff"
     id="base" />
  <metadata
     id="metadata5">
    <rdf:RDF>
      <cc:Work
         rdf:about="">
        <dc:format>image/svg+xml</dc:format>
        <dc:type
           rdf:resource="http://purl.org/dc/dcmitype/StillImage" />
        <dc:title></dc:title>
      </cc:Work>
    </rdf:RDF>
  </metadata>
  <g
     id="layer1"
     inkscape:groupmode="layer"
     inkscape:label="Layer 1">
    <path
       sodipodi:nodetypes="sccccssscccccs"
       transform="scale(0.26458333)"
       d="m 369.8457,342.68555 c -55.06281,0 -102.23444,33.65857 -122.14843,81.50976 36.62397,7.65936 52.09313,20.16336 77.63281,44.51563 -26.7389,0.55671 -46.45426,-18.40019 -71.21564,-24.7492 l -14.60077,9.17107 c -1.1852,7.11886 -1.95117,14.38077 -1.95117,21.83594 0,73.05815 32.6084,80.06836 129.25355,81.77581 103.47463,1.82811 135.31286,-8.71766 135.31286,-81.77581 0,-3.14651 -0.25462,-6.22875 -0.47071,-9.32031 l -0.41797,-0.13086 c -18.78497,-6.5536 -46.25351,5.75891 -74.24609,19.19336 6.46511,-12.17507 14.49462,-19.92804 55.05389,-44.44607 l 15.75275,1.66286 C 483.10524,384.88867 431.47338,342.68554 369.8457,342.68555 Z"
       style="opacity:1;fill:url(#linearGradient917);fill-opacity:1;stroke-width:4.08741"
       id="path919" />
    <path
       sodipodi:nodetypes="ccccccccccccccccccccccccccccccccccccc"
       id="path861"
       d="m 45.922476,109.7546 c -6.007865,2.11805 -8.038325,3.86847 -8.693451,9.82738 3.265407,-4.51316 5.629819,-5.61632 9.071427,-7.37054 -4.113924,5.44083 -2.015381,9.16782 0.566965,13.22917 -0.155785,-6.55816 1.113557,-11.0352 3.947789,-13.69689 6.31502,8.40948 7.70067,22.35303 9.281377,29.76088 -9.390205,0.73728 -16.62553,2.8323 -23.62351,4.91369 13.176194,-1.35746 23.343132,-1.97689 35.71875,-2.64583 -2.825824,-2.43316 -3.378103,-2.12826 -6.99256,-2.45685 0.935064,-9.32161 2.520408,-15.29995 8.315476,-22.67857 2.449894,3.77467 2.411592,5.37246 2.078868,9.82738 3.164846,-3.61765 2.289669,-6.97186 0.944941,-9.4494 2.915449,1.02178 5.085745,3.76488 6.047619,6.80357 0.345697,-5.1259 -0.83823,-6.03597 -4.913691,-8.12649 4.831476,-1.52337 7.85922,-0.8552 7.85922,-0.8552 -4.834999,-2.9662 -5.751895,-2.36785 -9.449405,-1.70089 1.058922,-1.54028 2.243701,-3.70985 3.480067,-6.13736 -1.583869,1.60202 -3.436748,2.12801 -4.535714,5.66964 -0.06952,-5.09635 -3.877373,-6.26013 -6.992559,-6.04762 2.707658,2.28847 3.346971,3.88748 3.401785,5.29167 -4.710771,-1.2031 -3.929959,-1.99305 -7.748512,0.18899 4.284946,0.13195 4.260335,0.18865 7.559524,2.45684 -4.308694,1.15987 -4.19007,1.46733 -5.480655,4.15774 2.367762,-1.99786 3.556962,-2.87485 6.236608,-2.45684 -6.054263,8.77865 -6.695785,12.8376 -8.504465,22.86755 l -1.322916,0.18899 c -1.142585,-11.72932 -5.004309,-19.00056 -9.271881,-29.73795 4.816515,0.63341 5.943982,2.19705 7.948964,4.41355 -0.396039,-5.85392 -5.478719,-6.13995 -6.99256,-6.04762 3.197068,-3.3156 6.380428,-2.73497 11.150298,-2.07887 -5.863199,-4.82306 -9.11414,-3.31773 -11.717262,-0.94494 0.231257,-4.32768 1.916798,-4.28195 7.181548,-7.559527 -7.166047,-0.636503 -11.152961,2.384457 -10.394345,6.992567 -1.009862,-3.0507 -2.762631,-5.81295 -5.291667,-8.69346 0.838192,3.33523 2.182453,6.2855 3.96875,8.88244 -5.497979,-2.61912 -9.46293,-1.83081 -12.662203,0.56697 3.256934,0.95246 6.543175,1.79437 9.82738,2.64583 z"
       style="fill:url(#linearGradient875);fill-opacity:1;stroke:none;stroke-width:0.264583px;stroke-linecap:butt;stroke-linejoin:miter;stroke-opacity:1" />
    <path
       style="fill:url(#linearGradient879);fill-opacity:1;stroke:none;stroke-width:0.264583px;stroke-linecap:butt;stroke-linejoin:miter;stroke-opacity:1"
       d="m 149.78768,109.7546 c 6.00787,2.11805 8.03833,3.86847 8.69346,9.82738 -3.26541,-4.51316 -5.62983,-5.61632 -9.07144,-7.37054 4.11393,5.44083 2.01539,9.16782 -0.56696,13.22917 0.15578,-6.55816 -1.11356,-11.0352 -3.94779,-13.69689 -6.31503,8.40948 -7.70068,22.35303 -9.28139,29.76088 9.39022,0.73728 16.62554,2.8323 23.62353,4.91369 -13.1762,-1.35746 -23.34315,-1.97689 -35.71877,-2.64583 2.82582,-2.43316 3.3781,-2.12826 6.99256,-2.45685 -0.93506,-9.32161 -2.52041,-15.29995 -8.31548,-22.67857 -2.44989,3.77467 -2.41159,5.37246 -2.07887,9.82738 -3.16484,-3.61765 -2.28967,-6.97186 -0.94494,-9.4494 -2.91545,1.02178 -5.08575,3.76488 -6.04762,6.80357 -0.3457,-5.1259 0.83823,-6.03597 4.91369,-8.12649 -4.83148,-1.52337 -7.85922,-0.8552 -7.85922,-0.8552 4.835,-2.9662 5.7519,-2.36785 9.44941,-1.70089 -1.05892,-1.54028 -2.2437,-3.70985 -3.48007,-6.13736 1.58387,1.60202 3.43675,2.12801 4.53571,5.66964 0.0695,-5.09635 3.87738,-6.26013 6.99257,-6.04762 -2.70766,2.28847 -3.34697,3.88748 -3.40179,5.29167 4.71078,-1.2031 3.92996,-1.99305 7.74852,0.18899 -4.28495,0.13195 -4.26034,0.18865 -7.55953,2.45684 4.3087,1.15987 4.19007,1.46733 5.48066,4.15774 -2.36776,-1.99786 -3.55697,-2.87485 -6.23661,-2.45684 6.05426,8.77865 6.69578,12.8376 8.50447,22.86755 l 1.32291,0.18899 c 1.14259,-11.72932 5.00432,-19.00056 9.27189,-29.73795 -4.81652,0.63341 -5.94399,2.19705 -7.94897,4.41355 0.39604,-5.85392 5.47872,-6.13995 6.99256,-6.04762 -3.19706,-3.3156 -6.38043,-2.73497 -11.1503,-2.07887 5.8632,-4.82306 9.11415,-3.31773 11.71727,-0.94494 -0.23126,-4.32768 -1.9168,-4.28195 -7.18155,-7.559527 7.16605,-0.636503 11.15296,2.384457 10.39435,6.992567 1.00986,-3.0507 2.76263,-5.81295 5.29167,-8.69346 -0.83819,3.33523 -2.18246,6.2855 -3.96876,8.88244 5.49799,-2.61912 9.46294,-1.83081 12.66222,0.56697 -3.25694,0.95246 -6.54318,1.79437 -9.82739,2.64583 z"
       id="path877"
       sodipodi:nodetypes="ccccccccccccccccccccccccccccccccccccc" />
    <path
       sodipodi:nodetypes="ccc"
       id="path922"
       d="m 36.749561,146.19643 c 40.975638,-4.54497 81.476469,-3.62965 121.741269,0 -28.43292,10.59076 -25.68772,1.66391 -121.741269,0 z"
       style="fill:#5599ff;stroke:none;stroke-width:0.264583px;stroke-linecap:butt;stroke-linejoin:miter;stroke-opacity:1" />
  </g>
</svg>
